<svg id="SvgjsSvg1022" xmlns="http://www.w3.org/2000/svg" version="1.1" xmlns:xlink="http://www.w3.org/1999/xlink" xmlns:svgjs="http://svgjs.com/svgjs" width="35" height="35" viewBox="0 0 35 35"><title>Oval</title><desc>Created with Avocode.</desc><defs id="SvgjsDefs1023"></defs><path id="SvgjsPath1024" d="M214 4871.5C214 4861.83502 221.83502 4854 231.5 4854C241.16498 4854 249 4861.83502 249 4871.5C249 4881.16498 241.16498 4889 231.5 4889C221.83502 4889 214 4881.16498 214 4871.5Z " fill="#80e27e" fill-opacity="1" transform="matrix(1,0,0,1,-214,-4854)"></path><path id="SvgjsPath1025" d="M230.43 4878C230.19 4878 229.96 4877.92 229.76000000000002 4877.76L224.4 4873.360000000001C223.94 4872.9800000000005 223.86 4872.290000000001 224.24 4871.81C224.61 4871.34 225.28 4871.26 225.74 4871.64L230.3 4875.38L237.12 4867.37C237.51 4866.92 238.19 4866.87 238.63 4867.2699999999995C239.07999999999998 4867.669999999999 239.12 4868.37 238.74 4868.82L231.23000000000002 4877.62C231.02 4877.87 230.73000000000002 4878 230.43 4878Z " fill="#ffffff" fill-opacity="1" transform="matrix(1,0,0,1,-214,-4854)"></path></svg>