<svg id="SvgjsSvg1000" xmlns="http://www.w3.org/2000/svg" version="1.1" xmlns:xlink="http://www.w3.org/1999/xlink" xmlns:svgjs="http://svgjs.com/svgjs" width="34" height="34" viewBox="0 0 34 34"><title>Oval</title><desc>Created with Avocode.</desc><defs id="SvgjsDefs1001"></defs><path id="SvgjsPath1007" d="M70 4766C70 4756.61116 77.61116 4749 87 4749C96.38884 4749 104 4756.61116 104 4766C104 4775.38884 96.38884 4783 87 4783C77.61116 4783 70 4775.38884 70 4766Z " fill="#80e27e" fill-opacity="1" transform="matrix(1,0,0,1,-70,-4749)"></path><path id="SvgjsPath1008" d="M87.44 4765.57C87.52 4765.66 87.64 4765.7 87.75 4765.7C87.87 4765.7 87.98 4765.66 88.07 4765.57L90.83 4762.78C91.01 4762.599999999999 91.01 4762.3099999999995 90.83 4762.13C90.64999999999999 4761.96 90.37 4761.96 90.2 4762.13L87.75 4764.61L86.77 4763.61C86.58999999999999 4763.429999999999 86.31 4763.429999999999 86.13 4763.61C85.96 4763.79 85.96 4764.08 86.13 4764.259999999999Z " fill="#ffffff" fill-opacity="1" transform="matrix(1,0,0,1,-70,-4749)"></path><path id="SvgjsPath1009" d="M82.77 4769.04H92.81C93.92 4769.04 94.82000000000001 4768.13 94.82000000000001 4767.01V4762.72C94.82000000000001 4762.47 94.62 4762.27 94.38000000000001 4762.27C94.13000000000001 4762.27 93.93 4762.47 93.93 4762.72V4767C93.93 4767.63 93.43 4768.13 92.81 4768.13H82.77000000000001C82.16000000000001 4768.13 81.66000000000001 4767.62 81.66000000000001 4767V4758.64C81.66000000000001 4758.62 81.66000000000001 4758.6 81.65 4758.59C81.65 4758.58 81.65 4758.58 81.65 4758.58C81.65 4758.5599999999995 81.65 4758.55 81.65 4758.55C81.65 4758.54 81.65 4758.53 81.64 4758.52C81.64 4758.52 81.64 4758.51 81.64 4758.5C81.64 4758.49 81.63 4758.48 81.63 4758.47C81.63 4758.47 81.61999999999999 4758.47 81.61999999999999 4758.46C81.61999999999999 4758.45 81.61999999999999 4758.44 81.60999999999999 4758.44C81.60999999999999 4758.429999999999 81.60999999999999 4758.419999999999 81.60999999999999 4758.419999999999C81.59999999999998 4758.409999999999 81.59999999999998 4758.409999999999 81.58999999999999 4758.399999999999C81.58999999999999 4758.3899999999985 81.58999999999999 4758.3899999999985 81.57999999999998 4758.379999999998C81.57999999999998 4758.379999999998 81.57999999999998 4758.369999999998 81.56999999999998 4758.359999999998C81.56999999999998 4758.359999999998 81.55999999999997 4758.349999999998 81.55999999999997 4758.339999999997C81.54999999999997 4758.339999999997 81.54999999999997 4758.339999999997 81.54999999999997 4758.329999999997C81.53999999999996 4758.329999999997 81.53999999999996 4758.319999999997 81.52999999999997 4758.309999999997C81.51999999999997 4758.309999999997 81.51999999999997 4758.2999999999965 81.51999999999997 4758.2999999999965C81.50999999999996 4758.2999999999965 81.49999999999997 4758.289999999996 81.48999999999997 4758.279999999996C81.48999999999997 4758.279999999996 81.48999999999997 4758.279999999996 81.47999999999996 4758.269999999996C81.47999999999996 4758.269999999996 81.46999999999996 4758.259999999996 81.45999999999997 4758.259999999996C81.44999999999996 4758.249999999995 81.43999999999997 4758.249999999995 81.42999999999996 4758.239999999995C81.42999999999996 4758.239999999995 81.42999999999996 4758.239999999995 81.42999999999996 4758.229999999995C81.40999999999997 4758.219999999995 81.39999999999996 4758.219999999995 81.37999999999997 4758.209999999995L78.61999999999996 4757.0399999999945C78.38999999999996 4756.939999999994 78.12999999999997 4757.049999999995 78.03999999999996 4757.279999999994C77.93999999999997 4757.509999999994 78.04999999999997 4757.769999999994 78.26999999999997 4757.869999999994L80.75999999999996 4758.939999999994V4770.189999999994C80.75999999999996 4771.259999999994 81.56999999999996 4772.129999999994 82.59999999999997 4772.219999999994C82.38999999999997 4772.539999999994 82.26999999999997 4772.919999999994 82.26999999999997 4773.329999999994C82.26999999999997 4774.439999999993 83.15999999999997 4775.349999999994 84.24999999999997 4775.349999999994C85.34999999999997 4775.349999999994 86.23999999999997 4774.439999999994 86.23999999999997 4773.329999999994C86.23999999999997 4772.919999999994 86.11999999999996 4772.549999999994 85.91999999999997 4772.229999999993H90.66999999999997C90.45999999999998 4772.549999999993 90.34999999999998 4772.919999999993 90.34999999999998 4773.329999999994C90.34999999999998 4774.439999999993 91.23999999999998 4775.349999999994 92.32999999999998 4775.349999999994C93.42999999999998 4775.349999999994 94.31999999999998 4774.439999999994 94.31999999999998 4773.329999999994C94.31999999999998 4772.219999999994 93.42999999999998 4771.319999999993 92.32999999999998 4771.319999999993H82.76999999999998C82.15999999999998 4771.319999999993 81.65999999999998 4770.809999999993 81.65999999999998 4770.189999999993V4768.699999999993C81.97999999999998 4768.9099999999935 82.35999999999999 4769.039999999994 82.76999999999998 4769.039999999994ZM85.34 4773.33C85.34 4773.94 84.86 4774.44 84.25 4774.44C83.65 4774.44 83.16 4773.94 83.16 4773.33C83.16 4772.72 83.64999999999999 4772.23 84.25 4772.23C84.86 4772.23 85.34 4772.719999999999 85.34 4773.33ZM93.42 4773.33C93.42 4773.94 92.93 4774.44 92.33 4774.44C91.73 4774.44 91.24 4773.94 91.24 4773.33C91.24 4772.72 91.72999999999999 4772.23 92.33 4772.23C92.92999999999999 4772.23 93.42 4772.719999999999 93.42 4773.33Z " fill="#ffffff" fill-opacity="1" transform="matrix(1,0,0,1,-70,-4749)"></path></svg>