<svg id="SvgjsSvg1010" xmlns="http://www.w3.org/2000/svg" version="1.1" xmlns:xlink="http://www.w3.org/1999/xlink" xmlns:svgjs="http://svgjs.com/svgjs" width="35" height="35" viewBox="0 0 35 35"><title>Oval</title><desc>Created with Avocode.</desc><defs id="SvgjsDefs1011"></defs><path id="SvgjsPath1012" d="M214 4766.5C214 4756.83502 221.83502 4749 231.5 4749C241.16498 4749 249 4756.83502 249 4766.5C249 4776.16498 241.16498 4784 231.5 4784C221.83502 4784 214 4776.16498 214 4766.5Z " fill="#80e27e" fill-opacity="1" transform="matrix(1,0,0,1,-214,-4749)"></path><path id="SvgjsPath1013" d="M238 4768.67C237.61 4768.26 237.14 4768.05 236.64 4768.05C236.14999999999998 4768.05 235.67999999999998 4768.26 235.26999999999998 4768.66L233.99999999999997 4769.93C233.89999999999998 4769.87 233.79999999999998 4769.820000000001 233.68999999999997 4769.76C233.54999999999998 4769.6900000000005 233.40999999999997 4769.62 233.29999999999998 4769.55C232.10999999999999 4768.8 231.02999999999997 4767.820000000001 229.99999999999997 4766.55C229.49999999999997 4765.91 229.15999999999997 4765.38 228.91999999999996 4764.84C229.24999999999997 4764.54 229.54999999999995 4764.2300000000005 229.84999999999997 4763.92C229.95999999999998 4763.81 230.06999999999996 4763.7 230.17999999999998 4763.58C231.02999999999997 4762.74 231.02999999999997 4761.65 230.17999999999998 4760.8099999999995L229.08999999999997 4759.719999999999C228.96999999999997 4759.589999999999 228.83999999999997 4759.459999999999 228.71999999999997 4759.329999999999C228.47999999999996 4759.089999999999 228.21999999999997 4758.829999999999 227.95999999999998 4758.589999999999C227.57 4758.199999999999 227.10999999999999 4757.999999999999 226.61999999999998 4757.999999999999C226.12999999999997 4757.999999999999 225.65999999999997 4758.199999999999 225.25999999999996 4758.589999999999C225.24999999999997 4758.589999999999 225.24999999999997 4758.589999999999 225.24999999999997 4758.599999999999L223.88999999999996 4759.969999999999C223.36999999999995 4760.49 223.07999999999996 4761.11 223.01999999999995 4761.839999999999C222.91999999999996 4763.009999999999 223.26999999999995 4764.099999999999 223.52999999999994 4764.8099999999995C224.17999999999995 4766.5599999999995 225.14999999999995 4768.19 226.59999999999994 4769.929999999999C228.34999999999994 4772.0199999999995 230.45999999999995 4773.679999999999 232.87999999999994 4774.839999999999C233.79999999999993 4775.279999999999 235.02999999999994 4775.799999999999 236.39999999999995 4775.889999999999C236.48999999999995 4775.889999999999 236.57999999999996 4775.889999999999 236.65999999999994 4775.889999999999C237.57999999999993 4775.889999999999 238.35999999999993 4775.5599999999995 238.96999999999994 4774.9C238.96999999999994 4774.889999999999 238.97999999999993 4774.889999999999 238.98999999999995 4774.879999999999C239.18999999999994 4774.629999999999 239.43999999999994 4774.4 239.68999999999994 4774.15C239.85999999999993 4773.99 240.03999999999994 4773.82 240.20999999999995 4773.639999999999C240.60999999999996 4773.219999999999 240.80999999999995 4772.74 240.80999999999995 4772.249999999999C240.80999999999995 4771.749999999999 240.59999999999994 4771.279999999999 240.19999999999993 4770.879999999999ZM239.43 4772.89C239.27 4773.06 239.11 4773.21 238.94 4773.38C238.68 4773.62 238.42 4773.89 238.17 4774.18C237.76 4774.610000000001 237.29 4774.820000000001 236.66 4774.820000000001C236.6 4774.820000000001 236.54 4774.820000000001 236.48 4774.81C235.29 4774.740000000001 234.17999999999998 4774.27 233.35 4773.870000000001C231.07999999999998 4772.780000000001 229.09 4771.220000000001 227.43 4769.240000000001C226.07 4767.590000000001 225.15 4766.070000000001 224.55 4764.43C224.17000000000002 4763.4400000000005 224.04000000000002 4762.66 224.10000000000002 4761.92C224.14000000000001 4761.46 224.32000000000002 4761.07 224.65000000000003 4760.7300000000005L226.02000000000004 4759.370000000001C226.22000000000003 4759.180000000001 226.42000000000004 4759.080000000001 226.63000000000005 4759.080000000001C226.88000000000005 4759.080000000001 227.09000000000006 4759.2300000000005 227.21000000000006 4759.360000000001C227.22000000000006 4759.370000000001 227.22000000000006 4759.370000000001 227.23000000000008 4759.370000000001C227.47000000000008 4759.6 227.70000000000007 4759.840000000001 227.95000000000007 4760.090000000001C228.07000000000008 4760.220000000001 228.20000000000007 4760.350000000001 228.33000000000007 4760.480000000001L229.42000000000007 4761.580000000002C229.85000000000008 4762.000000000002 229.85000000000008 4762.390000000002 229.42000000000007 4762.8200000000015C229.31000000000006 4762.930000000001 229.19000000000008 4763.050000000001 229.08000000000007 4763.160000000002C228.74000000000007 4763.510000000002 228.42000000000007 4763.830000000002 228.07000000000008 4764.140000000001C228.0600000000001 4764.1500000000015 228.0600000000001 4764.1500000000015 228.05000000000007 4764.160000000002C227.71000000000006 4764.510000000002 227.77000000000007 4764.840000000002 227.84000000000006 4765.0700000000015C227.85000000000005 4765.080000000002 227.85000000000005 4765.090000000002 227.85000000000005 4765.1100000000015C228.14000000000004 4765.800000000001 228.54000000000005 4766.450000000002 229.15000000000006 4767.220000000001C230.26000000000008 4768.590000000001 231.43000000000006 4769.6500000000015 232.71000000000006 4770.460000000001C232.88000000000005 4770.570000000001 233.05000000000007 4770.650000000001 233.21000000000006 4770.730000000001C233.35000000000005 4770.800000000001 233.49000000000007 4770.870000000002 233.60000000000005 4770.940000000001C233.62000000000006 4770.950000000002 233.63000000000005 4770.960000000002 233.65000000000006 4770.970000000001C233.79000000000005 4771.040000000001 233.92000000000007 4771.0700000000015 234.05000000000007 4771.0700000000015C234.38000000000008 4771.0700000000015 234.59000000000006 4770.8600000000015 234.66000000000008 4770.790000000002L236.0300000000001 4769.420000000002C236.16000000000008 4769.290000000002 236.38000000000008 4769.120000000002 236.63000000000008 4769.120000000002C236.88000000000008 4769.120000000002 237.0900000000001 4769.280000000002 237.2100000000001 4769.420000000002C237.2100000000001 4769.420000000002 237.2100000000001 4769.420000000002 237.22000000000008 4769.420000000002L239.4300000000001 4771.630000000002C239.8400000000001 4772.040000000002 239.8400000000001 4772.460000000002 239.4300000000001 4772.890000000002Z " fill="#ffffff" fill-opacity="1" transform="matrix(1,0,0,1,-214,-4749)"></path><path id="SvgjsPath1014" d="M233.45 4761.07C234.5 4761.25 235.45 4761.75 236.20999999999998 4762.509999999999C236.96999999999997 4763.2699999999995 237.46999999999997 4764.219999999999 237.64999999999998 4765.2699999999995C237.68999999999997 4765.54 237.92 4765.719999999999 238.17999999999998 4765.719999999999C238.20999999999998 4765.719999999999 238.23999999999998 4765.719999999999 238.26999999999998 4765.719999999999C238.57 4765.669999999999 238.76 4765.389999999999 238.71999999999997 4765.089999999999C238.49999999999997 4763.819999999999 237.89999999999998 4762.659999999999 236.97999999999996 4761.739999999999C236.05999999999997 4760.819999999999 234.89999999999995 4760.219999999998 233.62999999999997 4760.009999999999C233.33999999999997 4759.959999999999 233.05999999999997 4760.159999999999 233.00999999999996 4760.449999999999C232.95999999999995 4760.739999999999 233.14999999999995 4761.029999999999 233.44999999999996 4761.069999999999Z " fill="#ffffff" fill-opacity="1" transform="matrix(1,0,0,1,-214,-4749)"></path><path id="SvgjsPath1015" d="M242 4765.38C241.64 4763.29 240.66 4761.38 239.14 4759.87C237.61999999999998 4758.349999999999 235.72 4757.37 233.63 4757.01C233.34 4756.96 233.06 4757.16 233.01 4757.45C232.95999999999998 4757.75 233.16 4758.0199999999995 233.45 4758.07C235.32 4758.389999999999 237.01999999999998 4759.28 238.38 4760.63C239.73 4761.9800000000005 240.62 4763.6900000000005 240.93 4765.55C240.98000000000002 4765.820000000001 241.20000000000002 4766 241.47 4766C241.5 4766 241.53 4766 241.56 4766C241.85 4765.95 242.05 4765.67 242 4765.38Z " fill="#ffffff" fill-opacity="1" transform="matrix(1,0,0,1,-214,-4749)"></path></svg>