<svg id="SvgjsSvg1016" xmlns="http://www.w3.org/2000/svg" version="1.1" xmlns:xlink="http://www.w3.org/1999/xlink" xmlns:svgjs="http://svgjs.com/svgjs" width="35" height="35" viewBox="0 0 35 35"><title>Oval</title><desc>Created with Avocode.</desc><defs id="SvgjsDefs1017"></defs><path id="SvgjsPath1018" d="M70 4871.5C70 4861.83502 77.83502 4854 87.5 4854C97.16498 4854 105 4861.83502 105 4871.5C105 4881.16498 97.16498 4889 87.5 4889C77.83502 4889 70 4881.16498 70 4871.5Z " fill="#80e27e" fill-opacity="1" transform="matrix(1,0,0,1,-70,-4854)"></path><path id="SvgjsPath1019" d="M100.22 4872.02L97.32 4868.71C97.22999999999999 4868.6 97.08999999999999 4868.54 96.94999999999999 4868.54H94.53999999999999V4866.5C94.53999999999999 4866.22 94.30999999999999 4866 94.03999999999999 4866H83.77C83.5 4866 83.28 4866.22 83.28 4866.5V4867.17H78.5C78.22 4867.17 78 4867.39 78 4867.67C78 4867.9400000000005 78.22 4868.16 78.5 4868.16H83.28V4874.61H80.4C80.13000000000001 4874.61 79.9 4874.839999999999 79.9 4875.11C79.9 4875.389999999999 80.13000000000001 4875.61 80.4 4875.61H83.28V4876.11C83.28 4876.389999999999 83.5 4876.61 83.77 4876.61H84.81C85.03 4877.41 85.76 4878 86.62 4878C87.49000000000001 4878 88.22 4877.41 88.44 4876.61H95.07C95.28999999999999 4877.41 96.02 4878 96.88 4878C97.75 4878 98.47999999999999 4877.41 98.69999999999999 4876.61H99.83999999999999C100.11999999999999 4876.61 100.33999999999999 4876.389999999999 100.33999999999999 4876.11V4872.339999999999C100.33999999999999 4872.219999999999 100.28999999999999 4872.11 100.21999999999998 4872.0199999999995ZM86.62 4877C86.14 4877 85.74000000000001 4876.6 85.74000000000001 4876.11C85.74000000000001 4875.62 86.14000000000001 4875.23 86.62 4875.23C87.11 4875.23 87.51 4875.62 87.51 4876.11C87.51 4876.599999999999 87.11 4877 86.62 4877ZM88.44 4875.62C88.22 4874.82 87.49 4874.23 86.62 4874.23C85.76 4874.23 85.03 4874.82 84.81 4875.62H84.27V4866.99H93.53999999999999V4875.62ZM96.88 4877C96.39 4877 96 4876.6 96 4876.11C96 4875.62 96.39 4875.23 96.88 4875.23C97.36999999999999 4875.23 97.77 4875.62 97.77 4876.11C97.77 4876.599999999999 97.36999999999999 4877 96.88 4877ZM98.7 4875.62C98.48 4874.82 97.75 4874.23 96.88000000000001 4874.23C96.02000000000001 4874.23 95.29 4874.82 95.07000000000001 4875.62H94.54V4869.54H96.72000000000001L99.34000000000002 4872.53V4875.62Z " fill="#ffffff" fill-opacity="1" transform="matrix(1,0,0,1,-70,-4854)"></path><path id="SvgjsPath1020" d="M78.76 4875H78.5C78.22 4875 78 4875.22 78 4875.5C78 4875.77 78.22 4876 78.5 4876H78.76C79.04 4876 79.26 4875.77 79.26 4875.5C79.26 4875.22 79.04 4875 78.76 4875Z " fill="#ffffff" fill-opacity="1" transform="matrix(1,0,0,1,-70,-4854)"></path><path id="SvgjsPath1021" d="M80.82 4871H75.5C75.22 4871 75 4871.22 75 4871.5C75 4871.77 75.22 4872 75.5 4872H80.82C81.1 4872 81.32 4871.77 81.32 4871.5C81.32 4871.22 81.1 4871 80.82 4871Z " fill="#ffffff" fill-opacity="1" transform="matrix(1,0,0,1,-70,-4854)"></path></svg>