<?xml version="1.0" encoding="UTF-8"?>
<svg width="67px" height="61px" viewBox="0 0 67 61" version="1.1" xmlns="http://www.w3.org/2000/svg" xmlns:xlink="http://www.w3.org/1999/xlink">
    <!-- Generator: Sketch 43.1 (39012) - http://www.bohemiancoding.com/sketch -->
    <title>box</title>
    <desc>Created with Sketch.</desc>
    <defs></defs>
    <g id="Artboard" stroke="none" stroke-width="1" fill="none" fill-rule="evenodd">
        <g id="ie-100k-1440px" transform="translate(-1177.000000, -798.000000)" fill-rule="nonzero" fill="#80E27E">
            <g id="2-block" transform="translate(135.000000, 793.000000)">
                <g id="box" transform="translate(1042.000000, 5.000000)">
                    <g id="search-delivery-service-tool" transform="translate(4.671024, 0.000000)">
                        <path d="M24.1895944,55.7342841 C24.9432173,55.7342841 25.5612393,55.7342841 25.9922668,55.7342841 L56.4530473,55.7342841 C59.2413621,55.7342841 61.5018155,53.4959826 61.5018155,50.7346147 L61.5018155,15.9489475 C61.5019257,14.6024548 60.8085364,12.6392105 59.9609627,11.5862065 L51.8483302,1.50670635 C51.0820337,0.554694789 49.9193732,0 48.6898627,0 L12.8175401,0 C11.5880296,0 10.4254792,0.554585726 9.65918277,1.50670635 L1.54644009,11.5862065 C0.698866412,12.6392105 0.00547713194,14.6024548 0.00547713194,15.9489475 L0.00547713194,29.1069518 C2.56995932,27.7953884 5.48024542,27.0547772 8.56510883,27.0547772 C18.8862107,27.0547772 27.2531169,35.3450826 27.2531169,45.5716924 C27.2531169,49.3246759 26.1262962,52.8168857 24.1895944,55.7342841 Z M4.19775101,11.5008101 L6.88441421,8.16293476 L20.1660788,8.16293476 L21.9749922,5.21768648 L9.25488925,5.21768648 L11.2384716,2.75329728 C11.6238224,2.27440132 12.1994809,1.99988957 12.8176502,1.99988957 L48.6899728,1.99988957 C49.3082523,1.99988957 49.8839108,2.27451039 50.2692616,2.75329728 L52.252844,5.21768648 L39.2161123,5.21768648 L40.22591,8.16293476 L54.623319,8.16293476 L57.3098721,11.5008101 L4.19775101,11.5008101 Z" id="Shape"></path>
                    </g>
                    <g id="refresh-button" transform="translate(0.000000, 31.658228)">
                        <path d="M2.2466656,11.5925453 C3.14160673,11.5925453 3.94999042,11.0571527 4.29616306,10.2346234 C5.725475,6.84158336 9.0863606,4.45033376 13.0044705,4.45033376 C15.1639501,4.45033376 17.1437446,5.18781504 18.7309739,6.41099221 L17.4868891,6.60289104 C17.0619292,6.66852716 16.7313541,7.00444974 16.6737634,7.4290067 C16.6160584,7.85333595 16.8456213,8.26502754 17.2375009,8.44047465 L24.0790241,11.5072127 C24.3789185,11.6413882 24.7263481,11.6156005 25.0027606,11.4386164 C25.278716,11.2613477 25.4463461,10.9571331 25.4481744,10.6298064 L25.4836543,3.11876876 C25.486054,2.69147934 25.2064991,2.31360201 24.7966796,2.18904709 C24.3861745,2.06449217 23.9427033,2.22257673 23.7051988,2.57825276 L22.7622083,3.99031167 C20.2480431,1.52437466 16.8029996,0 13.0044705,0 C7.24488667,0 2.29294384,3.50450192 0.180942196,8.48544649 C-0.112381844,9.17584965 -0.0384509308,9.96638632 0.376853402,10.5909826 C0.792157735,11.2158065 1.49415861,11.5925453 2.2466656,11.5925453 Z" id="Shape"></path>
                        <path d="M26.6639385,17.9889045 C26.2485771,17.3640236 25.5465191,16.9873418 24.7940692,16.9873418 C23.8991281,16.9873418 23.0907444,17.5227344 22.7445717,18.3452637 C21.3152027,21.7383038 17.9543171,24.1295534 14.0362643,24.1295534 C11.8767275,24.1295534 9.89693308,23.3920721 8.30964667,22.1688949 L9.55378852,21.9771099 C9.9786913,21.9114738 10.3092665,21.5754943 10.3669714,21.1508804 C10.4246193,20.7266081 10.1951135,20.3148596 9.80323394,20.1394125 L2.96171067,17.0726744 C2.66175913,16.9385559 2.31438668,16.9642297 2.03791706,17.1412707 C1.76201877,17.3185395 1.59433158,17.622754 1.59256044,17.9500238 L1.55702332,25.4610614 C1.55462371,25.8883509 1.83412141,26.2662282 2.24399805,26.3907831 C2.65450316,26.515338 3.0980315,26.3571965 3.33547885,26.0014636 L4.27846936,24.5894047 C6.79257748,27.0554555 10.237678,28.5798302 14.0362072,28.5798302 C19.7959053,28.5798302 24.7476767,25.0753852 26.8596212,20.0944406 C27.1531166,19.4040375 27.0791857,18.6135577 26.6639385,17.9889045 Z" id="Shape"></path>
                    </g>
                </g>
            </g>
        </g>
    </g>
</svg>