<?xml version="1.0" encoding="UTF-8"?>
<svg width="79px" height="56px" viewBox="0 0 79 56" version="1.1" xmlns="http://www.w3.org/2000/svg" xmlns:xlink="http://www.w3.org/1999/xlink">
    <!-- Generator: Sketch 43.1 (39012) - http://www.bohemiancoding.com/sketch -->
    <title>delivery-truck (1)</title>
    <desc>Created with Sketch.</desc>
    <defs></defs>
    <g id="Artboard" stroke="none" stroke-width="1" fill="none" fill-rule="evenodd">
        <g id="ie-100k-1440px" transform="translate(-434.000000, -805.000000)" fill-rule="nonzero" fill="#80E27E">
            <g id="2-block" transform="translate(135.000000, 793.000000)">
                <g id="delivery-truck-(1)" transform="translate(299.000000, 12.000000)">
                    <path d="M2.77197059,37.2713704 L2.77197059,3.51788889 C2.77197059,1.64227778 4.28600817,0.121722222 6.15386765,0.121722222 L39.7482304,0.121722222 C41.6159608,0.121722222 43.1299984,1.64227778 43.1299984,3.51788889 L43.1299984,37.2715 C43.1299984,37.8967037 42.6254052,38.4035556 42.0026993,38.4035556 L3.89926961,38.4035556 C3.27656373,38.4035556 2.77197059,37.8967037 2.77197059,37.2713704 Z M29.9004673,48.8345926 C29.9004673,52.7247778 26.7599592,55.8784074 22.8862484,55.8784074 C19.0125376,55.8784074 15.8720294,52.7247778 15.8720294,48.8345926 C15.8720294,44.9442778 19.0125376,41.7907778 22.8862484,41.7907778 C26.7599592,41.7907778 29.9004673,44.9442778 29.9004673,48.8345926 Z M26.3932288,48.8345926 C26.3932288,46.8895 24.8230392,45.3126852 22.8861193,45.3126852 C20.9491993,45.3126852 19.3788807,46.8895 19.3788807,48.8345926 C19.3788807,50.7796852 20.9491993,52.3566296 22.8861193,52.3566296 C24.8230392,52.3566296 26.3932288,50.7796852 26.3932288,48.8345926 Z M16.8449428,41.7906481 L1.12729902,41.7906481 C0.504722222,41.7906481 0,42.2975 0,42.9227037 L0,46.3572407 C0,46.9824444 0.504722222,47.4892963 1.12729902,47.4892963 L13.7257337,47.4892963 C14.0546422,45.2228519 15.193817,43.2208519 16.8449428,41.7906481 Z M66.5998399,48.8345926 C66.5998399,52.7247778 63.4593317,55.8784074 59.5856209,55.8784074 C55.711781,55.8784074 52.571402,52.7247778 52.571402,48.8345926 C52.571402,44.9442778 55.711781,41.7907778 59.5856209,41.7907778 C63.4593317,41.7906481 66.5998399,44.9442778 66.5998399,48.8345926 Z M63.0928595,48.8345926 C63.0928595,46.8895 61.5225408,45.3126852 59.5856209,45.3126852 C57.6485719,45.3126852 56.0785114,46.8895 56.0785114,48.8345926 C56.0785114,50.7796852 57.648701,52.3566296 59.5856209,52.3566296 C61.5225408,52.3566296 63.0928595,50.7796852 63.0928595,48.8345926 Z M79,42.9227037 L79,46.3572407 C79,46.9824444 78.4952778,47.4892963 77.872701,47.4892963 L68.7458775,47.4892963 C68.0930948,42.9933519 64.2400376,39.526537 59.5858791,39.526537 C54.930817,39.526537 51.0776307,42.9934815 50.424848,47.4892963 L32.0467631,47.4892963 C31.7177255,45.2229815 30.5786797,43.2208519 28.9275539,41.7906481 L46.35325,41.7906481 L46.35325,9.41033333 C46.35325,8.15992593 47.3626944,7.14622222 48.607848,7.14622222 L59.2502582,7.14622222 C62.2468366,7.14622222 65.0475931,8.64098148 66.7242778,11.1349259 L73.5851438,21.3395 C74.5914902,22.8363333 75.1292582,24.6011111 75.1292582,26.4072407 L75.1292582,41.7906481 L77.872701,41.7906481 C78.4952778,41.7906481 79,42.2975 79,42.9227037 Z M67.5641046,21.6008333 L62.0778644,13.7721111 C61.8666814,13.4708519 61.522799,13.2915741 61.1559395,13.2915741 L52.5982516,13.2915741 C51.9758039,13.2915741 51.4709526,13.7984259 51.4709526,14.4236296 L51.4709526,22.2523519 C51.4709526,22.8776852 51.9756748,23.3844074 52.5982516,23.3844074 L66.6424379,23.3844074 C67.555585,23.3844074 68.0897386,22.3508704 67.5641046,21.6008333 Z" id="Shape"></path>
                </g>
            </g>
        </g>
    </g>
</svg>