<?xml version="1.0" encoding="UTF-8"?>
<svg width="60px" height="57px" viewBox="0 0 60 57" version="1.1" xmlns="http://www.w3.org/2000/svg" xmlns:xlink="http://www.w3.org/1999/xlink">
    <!-- Generator: Sketch 43.1 (39012) - http://www.bohemiancoding.com/sketch -->
    <title>like (1)</title>
    <desc>Created with Sketch.</desc>
    <defs></defs>
    <g id="Artboard" stroke="none" stroke-width="1" fill="none" fill-rule="evenodd">
        <g id="ie-100k-1440px" transform="translate(-937.000000, -801.000000)" fill-rule="nonzero" fill="#80E27E">
            <g id="2-block" transform="translate(135.000000, 793.000000)">
                <g id="like-(1)" transform="translate(802.000000, 8.000000)">
                    <path d="M9.79429688,18.2186829 L1.95890625,18.2186829 C0.88171875,18.2186829 0,19.0859634 0,20.1551768 L0,55.0133415 C0,56.0820915 0.877851563,56.9496037 1.95890625,56.9496037 L9.79429688,56.9496037 C10.8753516,56.9496037 11.7532031,56.0819756 11.7532031,55.0133415 L11.7532031,20.1551768 C11.7532031,19.0859634 10.8713672,18.2186829 9.79429688,18.2186829 Z" id="Shape"></path>
                    <path d="M55.1092969,18.2186829 C54.7938281,18.1658537 40.0226953,18.2186829 40.0226953,18.2186829 L42.0858984,12.654 C43.5094922,8.81067073 42.5878125,2.94233537 38.6377734,0.856042683 C37.3516406,0.176676829 35.5546875,-0.164512195 34.1058984,0.19602439 C33.2750391,0.402707317 32.5448437,0.94652439 32.1096094,1.67512805 C31.6091016,2.51309756 31.6607812,3.49125 31.4825391,4.42039634 C31.0305469,6.77709146 29.9041406,9.01781707 28.1598047,10.6996646 C25.1185547,13.6320366 15.6710156,22.0916707 15.6710156,22.0916707 L15.6710156,53.0767317 L48.3186328,53.0767317 C52.7239453,53.0792805 55.6109766,48.2157439 53.4382031,44.4167866 C56.0281641,42.776878 56.9139844,39.3227012 55.3971094,36.6705793 C57.9871875,35.0306707 58.8728906,31.5764939 57.3560156,28.924372 C61.8248437,26.094878 60.3308203,19.0917561 55.1092969,18.2186829 Z" id="Shape"></path>
                </g>
            </g>
        </g>
    </g>
</svg>