<svg id="SvgjsSvg1000" xmlns="http://www.w3.org/2000/svg" version="1.1" xmlns:xlink="http://www.w3.org/1999/xlink" xmlns:svgjs="http://svgjs.com/svgjs" width="17" height="16" viewBox="0 0 17 16"><title>Shape</title><desc>Created with Avocode.</desc><defs id="SvgjsDefs1001"></defs><path id="SvgjsPath1007" d="M300.97 24.62C301 24.880000000000003 300.92 25.11 300.73 25.3L298.48 27.53C298.38 27.650000000000002 298.25 27.740000000000002 298.08000000000004 27.82C297.92 27.9 297.76000000000005 27.95 297.6 27.98C297.59000000000003 27.98 297.56 27.98 297.5 27.98C297.44 27.990000000000002 297.37 27.990000000000002 297.28 27.990000000000002C297.07 27.990000000000002 296.71999999999997 27.96 296.23999999999995 27.880000000000003C295.75999999999993 27.810000000000002 295.17999999999995 27.630000000000003 294.47999999999996 27.340000000000003C293.78999999999996 27.050000000000004 292.99999999999994 26.620000000000005 292.11999999999995 26.040000000000003C291.23999999999995 25.470000000000002 290.30999999999995 24.680000000000003 289.31999999999994 23.67C288.5299999999999 22.89 287.86999999999995 22.150000000000002 287.3499999999999 21.44C286.8299999999999 20.720000000000002 286.4199999999999 20.07 286.0999999999999 19.46C285.7899999999999 18.86 285.5499999999999 18.310000000000002 285.38999999999993 17.82C285.2299999999999 17.330000000000002 285.12999999999994 16.9 285.06999999999994 16.55C285.00999999999993 16.19 284.98999999999995 15.91 284.99999999999994 15.71C285.00999999999993 15.510000000000002 285.0199999999999 15.39 285.0199999999999 15.370000000000001C285.0399999999999 15.21 285.0899999999999 15.05 285.1699999999999 14.89C285.2499999999999 14.72 285.3499999999999 14.59 285.4599999999999 14.49L287.7099999999999 12.24C287.86999999999995 12.08 288.0499999999999 12 288.24999999999994 12C288.3999999999999 12 288.5299999999999 12.04 288.63999999999993 12.13C288.74999999999994 12.21 288.8499999999999 12.32 288.92999999999995 12.440000000000001L290.73999999999995 15.88C290.84 16.060000000000002 290.86999999999995 16.26 290.81999999999994 16.470000000000002C290.7799999999999 16.69 290.67999999999995 16.87 290.5299999999999 17.01L289.69999999999993 17.84C289.67999999999995 17.87 289.6599999999999 17.9 289.6499999999999 17.95C289.62999999999994 18.009999999999998 289.61999999999995 18.05 289.61999999999995 18.08C289.65999999999997 18.319999999999997 289.7699999999999 18.59 289.91999999999996 18.9C290.05999999999995 19.169999999999998 290.27 19.5 290.54999999999995 19.889999999999997C290.8299999999999 20.279999999999998 291.22999999999996 20.719999999999995 291.74999999999994 21.229999999999997C292.25999999999993 21.749999999999996 292.7099999999999 22.159999999999997 293.09999999999997 22.439999999999998C293.49999999999994 22.729999999999997 293.83 22.939999999999998 294.09 23.08C294.35999999999996 23.22 294.56 23.299999999999997 294.7 23.33L294.90999999999997 23.369999999999997C294.93999999999994 23.369999999999997 294.96999999999997 23.359999999999996 295.02 23.339999999999996C295.07 23.329999999999995 295.10999999999996 23.309999999999995 295.13 23.279999999999998L296.1 22.299999999999997C296.3 22.119999999999997 296.54 22.029999999999998 296.81 22.029999999999998C297 22.029999999999998 297.15 22.06 297.26 22.13H297.28L300.53999999999996 24.06C300.78 24.209999999999997 300.91999999999996 24.4 300.96999999999997 24.619999999999997Z " fill="#ffffff" fill-opacity="1" transform="matrix(1,0,0,1,-284,-12)"></path></svg>