<?xml version="1.0" encoding="UTF-8"?>
<svg width="68px" height="66px" viewBox="0 0 68 66" version="1.1" xmlns="http://www.w3.org/2000/svg" xmlns:xlink="http://www.w3.org/1999/xlink">
    <!-- Generator: Sketch 43.1 (39012) - http://www.bohemiancoding.com/sketch -->
    <title>wallet-filled-money-tool</title>
    <desc>Created with Sketch.</desc>
    <defs></defs>
    <g id="Artboard" stroke="none" stroke-width="1" fill="none" fill-rule="evenodd">
        <g id="ie-100k-1440px" transform="translate(-185.000000, -793.000000)" fill-rule="nonzero" fill="#80E27E">
            <g id="2-block" transform="translate(135.000000, 793.000000)">
                <g id="wallet-filled-money-tool" transform="translate(50.000000, 0.000000)">
                    <path d="M15.8819304,12.6109346 L42.9750842,5.1396729 L41.5402918,2.20976636 C40.6015713,0.305327103 38.312009,-0.481121495 36.426936,0.467242991 L12.1728395,12.6109346 L15.8819304,12.6109346 Z" id="Shape"></path>
                    <path d="M51.3854097,5.35556075 C51.0496835,5.35556075 50.7138047,5.40182243 50.3780022,5.49434579 L44.0130954,7.25228972 L24.5746352,12.6109346 L46.6383838,12.6109346 L56.2545455,12.6109346 L55.0639731,8.20065421 C54.6060606,6.48126168 53.064422,5.35556075 51.3854097,5.35556075 Z" id="Shape"></path>
                    <path d="M60.230752,15.3095327 L59.3607183,15.3095327 L58.1777778,15.3095327 L56.9948373,15.3095327 L47.96633,15.3095327 L14.7905724,15.3095327 L10.440404,15.3095327 L6.77710438,15.3095327 L6.09786756,15.3095327 L3.82356902,15.3095327 C2.61773288,15.3095327 1.54163861,15.8723832 0.839506173,16.7590654 C0.518967452,17.1677103 0.274747475,17.6380374 0.137373737,18.1546262 C0.0534231201,18.4784579 0,18.8177103 0,19.1646729 L0,19.6272897 L0,24.0221495 L0,62.1186449 C0,64.2467593 1.70953984,65.973785 3.81593715,65.973785 L60.2231201,65.973785 C62.3295937,65.973785 64.0390572,64.2467593 64.0390572,62.1186449 L64.0390572,51.3628037 L41.3952862,51.3628037 C37.8159371,51.3628037 34.908193,48.4251869 34.908193,44.8090654 L34.908193,41.277757 L34.908193,40.0826636 L34.908193,38.8875701 L34.908193,36.2352336 C34.908193,34.4618692 35.6102492,32.8504977 36.7474747,31.6708248 C37.7548822,30.6221495 39.1057239,29.9128037 40.616835,29.7354673 C40.8686869,29.7047033 41.1281706,29.6892056 41.3876543,29.6892056 L60.8641975,29.6892056 L62.047138,29.6892056 L63.2300786,29.6892056 L64.0390572,29.6892056 L64.0390572,19.1646729 C64.0466891,17.0366355 62.3371493,15.3095327 60.230752,15.3095327 Z" id="Shape"></path>
                    <path d="M66.7178451,33.3747196 C66.3362514,33.0200467 65.8859708,32.7501869 65.3822671,32.5728505 C64.9929652,32.4418528 64.5809203,32.36475 64.1459035,32.36475 L64.0466891,32.36475 L63.9703704,32.36475 L62.7874299,32.36475 L58.5212121,32.36475 L41.3952862,32.36475 C39.2888126,32.36475 37.579349,34.0917757 37.579349,36.2198902 L37.579349,38.1396729 L37.579349,39.3347664 L37.579349,40.5298598 L37.579349,44.8013551 C37.579349,46.9293925 39.2888126,48.6564953 41.3952862,48.6564953 L64.0466891,48.6564953 L64.1459035,48.6564953 C64.5809203,48.6564953 64.9930415,48.5793925 65.3822671,48.4483178 C65.8859708,48.2786916 66.3362514,48.0011215 66.7178451,47.6464486 C67.4810325,46.9448131 67.9618406,45.9270561 67.9618406,44.8014322 L67.9618406,36.2198902 C67.9618406,35.0941121 67.4810325,34.076278 66.7178451,33.3747196 Z M49.362963,41.277757 C49.362963,42.3417757 48.508193,43.2053271 47.4549944,43.2053271 L46.1881033,43.2053271 C45.1349046,43.2053271 44.2801347,42.3417757 44.2801347,41.277757 L44.2801347,39.9978505 C44.2801347,39.381028 44.562514,38.833521 45.0127946,38.4865584 C45.3409652,38.2321192 45.7455309,38.0702804 46.1881033,38.0702804 L46.508642,38.0702804 L47.4549944,38.0702804 C48.508193,38.0702804 49.362963,38.9337547 49.362963,39.9978505 L49.362963,41.277757 L49.362963,41.277757 Z" id="Shape"></path>
                </g>
            </g>
        </g>
    </g>
</svg>